# xmcd
#
# Track frame offsets: 
#        150
#        6387
#        27537
#        39635
#        53550
#        65714
#        79611
#        88743
#        103130
#        113118
#        124131
#        134474
#        146718
#        158874
#        173037
#        186194
#        198691
#        212436
#        223219
#        236164
#        249115
#        260663
#        276372
#        290406
#        302389
#
# Disc length: 4233 seconds
#
# Revision: 0
# Processed by: cddbd v1.5.2PL0 Copyright (c) Steve Scherf et al.
# Submitted via: ExactAudioCopy v1.0b3
#
DISCID=7d108719
DTITLE=Various Artist - Crime And Punishment
DYEAR=1900
DGENRE=Folk
TTITLE0=Bama - How I Got In The Penitentiary
TTITLE1=22, Little Red, Tangle Eye and Hard Hair - Early In The Mornin'
TTITLE2=Bukka White - Parchman Farm Blues
TTITLE3=Fred Mcmullen - Dekalb Chain Gang
TTITLE4=Lillie Mae - Buggy Jail House Blues
TTITLE5=Victoria Spivey - Murder In The First Degree
TTITLE6=Mattie May Thomas - Workhouse Blues
TTITLE7=Memphis Jug Band - He's In The Jailhouse Now
TTITLE8=The Crickets - I Fought The Law
TTITLE9=Jimmie Patton - Okie's In The Pokie
TTITLE10=Hurricane Harry - The Last Meal
TTITLE11=22 and Group - It Makes A Long Time Man Feel Bad
TTITLE12=Lightnin' Hopkins - Jail House Blues
TTITLE13=Texas Alexander - Penitentiary Moan Blues
TTITLE14=Hambone Willie Newbern - Shelby County Workhouse Blues
TTITLE15=Blind Lemon Jeffereson - Prison Cell Blues
TTITLE16=Peg Leg Howell and Jim Hill - Ball And Chain Blues
TTITLE17=Ernest Stoneman - Kenny Wagner's Surrender
TTITLE18=New Lost City Rampblers - Tom Dooley
TTITLE19=Odetta - The Gallows Pole
TTITLE20=Woody Guthrie - Slip Knot
TTITLE21=22 and Group - Old Dollar Mamie
TTITLE22=Tangle Eye - Tangle Eye Blues
TTITLE23=Mattie May Thomas - Big Mac From Macamere
TTITLE24=Blind Willie Johnson - Dark Was The Night, Cold Was The Groun
TTITLE24=d
EXTD=
EXTT0=
EXTT1=
EXTT2=
EXTT3=
EXTT4=
EXTT5=
EXTT6=
EXTT7=
EXTT8=
EXTT9=
EXTT10=
EXTT11=
EXTT12=
EXTT13=
EXTT14=
EXTT15=
EXTT16=
EXTT17=
EXTT18=
EXTT19=
EXTT20=
EXTT21=
EXTT22=
EXTT23=
EXTT24=
PLAYORDER=
